<svg width="14" height="15" viewBox="0 0 14 15" fill="none" xmlns="http://www.w3.org/2000/svg">
<path fill-rule="evenodd" clip-rule="evenodd" d="M11.7458 3.46484C12.022 3.46484 12.2458 3.6887 12.2458 3.96484V6.96484C12.2458 7.24099 12.022 7.46484 11.7458 7.46484C11.4697 7.46484 11.2458 7.24099 11.2458 6.96484V3.96484C11.2458 3.6887 11.4697 3.46484 11.7458 3.46484Z" fill="black"/>
<path fill-rule="evenodd" clip-rule="evenodd" d="M9.74585 5.46484C9.74585 5.1887 9.96971 4.96484 10.2458 4.96484H13.2458C13.522 4.96484 13.7458 5.1887 13.7458 5.46484C13.7458 5.74099 13.522 5.96484 13.2458 5.96484H10.2458C9.96971 5.96484 9.74585 5.74099 9.74585 5.46484Z" fill="black"/>
<path fill-rule="evenodd" clip-rule="evenodd" d="M8.74585 0.964844C9.02199 0.964844 9.24585 1.1887 9.24585 1.46484V3.46484C9.24585 3.74099 9.02199 3.96484 8.74585 3.96484C8.46971 3.96484 8.24585 3.74099 8.24585 3.46484V1.46484C8.24585 1.1887 8.46971 0.964844 8.74585 0.964844Z" fill="black"/>
<path fill-rule="evenodd" clip-rule="evenodd" d="M7.24585 2.46484C7.24585 2.1887 7.46971 1.96484 7.74585 1.96484H9.74585C10.022 1.96484 10.2458 2.1887 10.2458 2.46484C10.2458 2.74099 10.022 2.96484 9.74585 2.96484H7.74585C7.46971 2.96484 7.24585 2.74099 7.24585 2.46484Z" fill="black"/>
<path fill-rule="evenodd" clip-rule="evenodd" d="M5.06208 2.06794C5.18961 2.19572 5.23836 2.38233 5.18961 2.55616C4.9383 3.45237 4.93006 4.39932 5.16575 5.29977C5.40144 6.20022 5.87255 7.02171 6.53072 7.67987C7.18888 8.33803 8.01037 8.80915 8.91081 9.04484C9.81126 9.28052 10.7582 9.27229 11.6544 9.02098C11.8283 8.97223 12.0149 9.02098 12.1426 9.14851C12.2704 9.27604 12.3195 9.46255 12.2711 9.63648C11.9783 10.6885 11.415 11.6454 10.6373 12.4119C9.85954 13.1785 8.89456 13.7278 7.83843 14.0054C6.7823 14.2829 5.67189 14.2789 4.6178 13.9937C3.56371 13.7085 2.60273 13.1522 1.83058 12.38C1.05843 11.6079 0.502064 10.6469 0.21689 9.59279C-0.068284 8.5387 -0.0723087 7.42829 0.205217 6.37216C0.482743 5.31603 1.03213 4.35104 1.79866 3.57332C2.5652 2.79559 3.52212 2.23227 4.57411 1.93946C4.74803 1.89106 4.93454 1.94016 5.06208 2.06794ZM4.04314 3.19694C3.47394 3.46064 2.95446 3.82522 2.51088 4.27528C1.86699 4.92857 1.4055 5.73916 1.17238 6.62631C0.939261 7.51346 0.942641 8.4462 1.18219 9.33163C1.42173 10.2171 1.88908 11.0243 2.53769 11.6729C3.18629 12.3215 3.99352 12.7889 4.87895 13.0284C5.76439 13.2679 6.69713 13.2713 7.58428 13.0382C8.47143 12.8051 9.28202 12.3436 9.9353 11.6997C10.3854 11.2561 10.7499 10.7366 11.0136 10.1674C10.2284 10.2657 9.42866 10.2141 8.6576 10.0122C7.58543 9.73161 6.60729 9.17065 5.82361 8.38698C5.03993 7.6033 4.47897 6.62515 4.19834 5.55299C3.99652 4.78192 3.94491 3.98222 4.04314 3.19694Z" fill="black"/>
</svg>
