<svg width="15" height="16" viewBox="0 0 15 16" fill="none" xmlns="http://www.w3.org/2000/svg">
<path fill-rule="evenodd" clip-rule="evenodd" d="M7.5 5.21484C5.70507 5.21484 4.25 6.66992 4.25 8.46484C4.25 10.2598 5.70507 11.7148 7.5 11.7148C9.29493 11.7148 10.75 10.2598 10.75 8.46484C10.75 6.66992 9.29493 5.21484 7.5 5.21484ZM3.25 8.46484C3.25 6.11763 5.15279 4.21484 7.5 4.21484C9.84721 4.21484 11.75 6.11763 11.75 8.46484C11.75 10.8121 9.84721 12.7148 7.5 12.7148C5.15279 12.7148 3.25 10.8121 3.25 8.46484Z" fill="black"/>
<path fill-rule="evenodd" clip-rule="evenodd" d="M7.5 0.964844C7.77614 0.964844 8 1.1887 8 1.46484V2.71484C8 2.99099 7.77614 3.21484 7.5 3.21484C7.22386 3.21484 7 2.99099 7 2.71484V1.46484C7 1.1887 7.22386 0.964844 7.5 0.964844Z" fill="black"/>
<path fill-rule="evenodd" clip-rule="evenodd" d="M2.1965 3.16134C2.39176 2.96608 2.70834 2.96608 2.9036 3.16134L3.78485 4.04259C3.98011 4.23785 3.98011 4.55443 3.78485 4.7497C3.58959 4.94496 3.27301 4.94496 3.07775 4.7497L2.1965 3.86845C2.00123 3.67318 2.00123 3.3566 2.1965 3.16134Z" fill="black"/>
<path fill-rule="evenodd" clip-rule="evenodd" d="M0 8.46484C0 8.1887 0.223858 7.96484 0.5 7.96484H1.75C2.02614 7.96484 2.25 8.1887 2.25 8.46484C2.25 8.74099 2.02614 8.96484 1.75 8.96484H0.5C0.223858 8.96484 0 8.74099 0 8.46484Z" fill="black"/>
<path fill-rule="evenodd" clip-rule="evenodd" d="M3.78485 12.18C3.98011 12.3753 3.98011 12.6919 3.78485 12.8871L2.9036 13.7684C2.70834 13.9636 2.39176 13.9636 2.1965 13.7684C2.00123 13.5731 2.00123 13.2565 2.1965 13.0613L3.07775 12.18C3.27301 11.9848 3.58959 11.9848 3.78485 12.18Z" fill="black"/>
<path fill-rule="evenodd" clip-rule="evenodd" d="M7.5 13.7148C7.77614 13.7148 8 13.9387 8 14.2148V15.4648C8 15.741 7.77614 15.9648 7.5 15.9648C7.22386 15.9648 7 15.741 7 15.4648V14.2148C7 13.9387 7.22386 13.7148 7.5 13.7148Z" fill="black"/>
<path fill-rule="evenodd" clip-rule="evenodd" d="M11.2151 12.18C11.4103 11.9848 11.7269 11.9848 11.9222 12.18L12.8034 13.0613C12.9987 13.2565 12.9987 13.5731 12.8034 13.7684C12.6081 13.9636 12.2916 13.9636 12.0963 13.7684L11.2151 12.8871C11.0198 12.6919 11.0198 12.3753 11.2151 12.18Z" fill="black"/>
<path fill-rule="evenodd" clip-rule="evenodd" d="M12.75 8.46484C12.75 8.1887 12.9739 7.96484 13.25 7.96484H14.5C14.7761 7.96484 15 8.1887 15 8.46484C15 8.74099 14.7761 8.96484 14.5 8.96484H13.25C12.9739 8.96484 12.75 8.74099 12.75 8.46484Z" fill="black"/>
<path fill-rule="evenodd" clip-rule="evenodd" d="M12.8034 3.16134C12.9987 3.3566 12.9987 3.67318 12.8034 3.86845L11.9222 4.7497C11.7269 4.94496 11.4103 4.94496 11.2151 4.7497C11.0198 4.55443 11.0198 4.23785 11.215 4.04259L12.0963 3.16134C12.2916 2.96608 12.6081 2.96608 12.8034 3.16134Z" fill="black"/>
</svg>
